<svg version="1.1" xmlns="http://www.w3.org/2000/svg" style="display: block;" viewBox="0 0 2048 2048" width="1024" height="1024" preserveAspectRatio="none">
<defs>
	<linearGradient id="Gradient1" gradientUnits="userSpaceOnUse" x1="613.396" y1="1054.64" x2="1107.5" y2="1061.8">
		<stop class="stop0" offset="0" stop-opacity="1" stop-color="rgb(149,102,222)"/>
		<stop class="stop1" offset="1" stop-opacity="1" stop-color="rgb(118,173,224)"/>
	</linearGradient>
	<linearGradient id="Gradient2" gradientUnits="userSpaceOnUse" x1="1235.67" y1="1275.51" x2="810.621" y2="837.227">
		<stop class="stop0" offset="0" stop-opacity="1" stop-color="rgb(18,22,33)"/>
		<stop class="stop1" offset="1" stop-opacity="1" stop-color="rgb(25,12,43)"/>
	</linearGradient>
	<linearGradient id="Gradient3" gradientUnits="userSpaceOnUse" x1="1150.07" y1="1406.31" x2="921.263" y2="990.555">
		<stop class="stop0" offset="0" stop-opacity="1" stop-color="rgb(19,20,34)"/>
		<stop class="stop1" offset="1" stop-opacity="1" stop-color="rgb(27,20,50)"/>
	</linearGradient>
</defs>
<path transform="translate(0,0)" fill="rgb(114,111,213)" d="M 1215.17 532.055 C 1256.49 547.532 1294.77 564.178 1330.43 590.81 C 1336.36 595.243 1346.47 602.705 1350.27 608.882 C 1350.93 614.832 1357.56 617.527 1362.58 620.021 C 1367.65 622.594 1372.92 627.828 1376.8 632.015 C 1403.57 660.853 1423.99 697.79 1429.86 736.818 C 1407.85 737.049 1380.28 739.772 1357.56 741.204 L 1353.43 742.355 C 1353.19 745.643 1357.57 749.435 1360.03 752.881 C 1377.13 751.828 1381.79 750.878 1399.15 752.087 C 1410.03 751.251 1419.96 750.618 1430.92 751.244 C 1431.51 767.916 1430.63 778.547 1429.03 795.424 C 1428.4 801.05 1427.73 810.54 1426.8 815.649 C 1428.77 829.268 1432.54 845.372 1432.95 858.747 C 1434.44 900.471 1432.03 945.871 1432.97 988.001 C 1433.17 996.586 1431.99 1006.29 1432.15 1014.81 C 1432.6 1022.78 1432.34 1031.11 1432.92 1038.71 C 1433.98 1072.65 1433.03 1110.51 1432.98 1144.88 C 1433.96 1150.82 1434.21 1181.46 1433.23 1187.18 C 1432.73 1199.12 1431.36 1250.99 1433.16 1260.27 C 1435.48 1267.66 1449.99 1285.11 1454.96 1293.72 C 1533.57 1429.99 1406.74 1531.06 1291.05 1575.22 C 1202.87 1608.88 1130.02 1620.28 1038.63 1623.81 C 942.836 1626.87 838.936 1608.58 750.214 1573.3 C 633.745 1526.99 513.7 1420.26 594.181 1286.99 C 599.139 1278.78 611.791 1265.02 614.172 1257.6 C 613.729 1245.01 615.759 1226.88 615.672 1213.44 C 615.606 1203.3 614.453 1182.11 616.067 1173.93 C 615.472 1162.04 614.511 1151.61 615.039 1139.65 C 614.456 1123.74 615.279 1107.3 615.307 1091.32 C 615.337 1073.85 614.875 1056.34 615.217 1038.9 C 615.3 1028.57 615.221 1022.75 617.13 1012.62 C 613.589 972.95 615.382 919.323 614.81 878.16 C 612.037 848.053 615.4 832.183 618.028 803.439 L 617.899 783.849 C 616.487 774.576 616.832 760.429 617.075 750.83 C 644.093 752.215 671.426 754.787 698.902 756.166 C 710.49 756.401 714.62 752.695 726.202 750.517 C 733.604 749.126 740.704 747.934 748.124 746.751 L 747.969 745.34 C 760.894 743.643 806.225 748.349 822.66 748.984 C 827.501 726.535 832.803 718.802 846.222 700.145 L 846.816 700.211 C 850.975 697.925 855.378 694.646 859.318 691.899 L 857.91 689.148 C 861.255 686.801 865.446 683.381 868.613 680.721 C 883.835 667.935 901.313 660.609 919.001 651.953 C 920.66 656.789 920.776 662.026 921.214 667.178 C 934.132 660.382 936.309 665.452 936.25 649.481 L 936.177 646.838 C 951.783 642.384 967.708 639.133 983.811 637.112 C 989.799 636.35 1011.67 635.11 1014.85 633.989 C 1014.83 641.399 1014.66 644.756 1013.61 652.066 L 1014.56 653.285 C 1022.36 655.974 1030.44 656.804 1032.63 647.301 L 1032.84 634.8 C 1061.42 635.27 1083.61 639.373 1111.16 646.001 C 1115.3 639.756 1129.46 620.578 1134.52 616.154 C 1134 620.398 1133.68 618.455 1135.27 622.236 C 1141.2 625.492 1146.65 621.503 1151.74 618.117 C 1166.38 601.328 1187.05 569.531 1202.24 549.874 C 1206.27 544.022 1210.6 537.42 1215.17 532.055 z M 1283.1 643.54 C 1278.71 646.528 1271.22 650.692 1270.23 655.89 C 1273.48 659.444 1277.1 657.587 1281.61 656.621 C 1298.39 652.315 1319.67 636.003 1334.46 626.902 L 1332.74 624.67 C 1334.47 622.431 1334.83 621.958 1336.13 619.47 C 1331.79 621.057 1328.19 622.163 1323.74 623.439 C 1313.23 627.948 1291.2 640.782 1283.1 643.54 z"/>
<path transform="translate(0,0)" fill="rgb(15,15,34)" d="M 1215.17 532.055 C 1256.49 547.532 1294.77 564.178 1330.43 590.81 C 1336.36 595.243 1346.47 602.705 1350.27 608.882 C 1350.93 614.832 1357.56 617.527 1362.58 620.021 C 1367.65 622.594 1372.92 627.828 1376.8 632.015 C 1403.57 660.853 1423.99 697.79 1429.86 736.818 C 1407.85 737.049 1380.28 739.772 1357.56 741.204 L 1353.43 742.355 C 1353.19 745.643 1357.57 749.435 1360.03 752.881 C 1377.13 751.828 1381.79 750.878 1399.15 752.087 C 1410.03 751.251 1419.96 750.618 1430.92 751.244 C 1431.51 767.916 1430.63 778.547 1429.03 795.424 C 1428.4 801.05 1427.73 810.54 1426.8 815.649 C 1428.77 829.268 1432.54 845.372 1432.95 858.747 C 1430.77 864.96 1430.28 871.09 1428.69 877.442 C 1410.99 948.44 1346.9 1000.36 1284.2 1032.21 C 1271.22 1038.79 1257.91 1044.68 1244.31 1049.86 C 1239.17 1051.87 1226 1056.42 1221.73 1058.66 C 1200.3 1064.72 1183.5 1070.76 1160.92 1075.89 C 1071.86 1096.23 979.405 1096.66 890.159 1077.14 C 788.376 1054 669.14 996.781 624.471 895.077 C 621.374 888.027 619.957 875.908 616.013 869.65 C 614.427 872.053 614.95 874.724 614.81 878.16 C 612.037 848.053 615.4 832.183 618.028 803.439 L 617.899 783.849 C 616.487 774.576 616.832 760.429 617.075 750.83 C 644.093 752.215 671.426 754.787 698.902 756.166 C 710.49 756.401 714.62 752.695 726.202 750.517 C 733.604 749.126 740.704 747.934 748.124 746.751 L 747.969 745.34 C 760.894 743.643 806.225 748.349 822.66 748.984 C 827.501 726.535 832.803 718.802 846.222 700.145 L 846.816 700.211 C 850.975 697.925 855.378 694.646 859.318 691.899 L 857.91 689.148 C 861.255 686.801 865.446 683.381 868.613 680.721 C 883.835 667.935 901.313 660.609 919.001 651.953 C 920.66 656.789 920.776 662.026 921.214 667.178 C 934.132 660.382 936.309 665.452 936.25 649.481 L 936.177 646.838 C 951.783 642.384 967.708 639.133 983.811 637.112 C 989.799 636.35 1011.67 635.11 1014.85 633.989 C 1014.83 641.399 1014.66 644.756 1013.61 652.066 L 1014.56 653.285 C 1022.36 655.974 1030.44 656.804 1032.63 647.301 L 1032.84 634.8 C 1061.42 635.27 1083.61 639.373 1111.16 646.001 C 1115.3 639.756 1129.46 620.578 1134.52 616.154 C 1134 620.398 1133.68 618.455 1135.27 622.236 C 1141.2 625.492 1146.65 621.503 1151.74 618.117 C 1166.38 601.328 1187.05 569.531 1202.24 549.874 C 1206.27 544.022 1210.6 537.42 1215.17 532.055 z M 1283.1 643.54 C 1278.71 646.528 1271.22 650.692 1270.23 655.89 C 1273.48 659.444 1277.1 657.587 1281.61 656.621 C 1298.39 652.315 1319.67 636.003 1334.46 626.902 L 1332.74 624.67 C 1334.47 622.431 1334.83 621.958 1336.13 619.47 C 1331.79 621.057 1328.19 622.163 1323.74 623.439 C 1313.23 627.948 1291.2 640.782 1283.1 643.54 z"/>
<path transform="translate(0,0)" fill="rgb(167,107,219)" d="M 617.075 750.83 C 644.093 752.215 671.426 754.787 698.902 756.166 C 740.648 761.128 785.048 760.589 827.206 765.355 C 831.704 788.514 834.095 795.363 846.848 815.13 C 819.289 825.143 790.34 834.464 762.508 843.979 C 729.216 855.683 695.768 866.938 662.174 877.742 C 648.631 862.079 632.477 829.329 625.814 809.574 C 623.178 801.758 621.5 790.891 617.899 783.849 C 616.487 774.576 616.832 760.429 617.075 750.83 z"/>
<path transform="translate(0,0)" fill="rgb(154,201,135)" d="M 1399.15 752.087 C 1410.03 751.251 1419.96 750.618 1430.92 751.244 C 1431.51 767.916 1430.63 778.547 1429.03 795.424 C 1424.72 798.674 1420.69 817.224 1417.96 823.997 C 1410.03 843.653 1399.19 861.692 1386.83 878.761 L 1202.37 814.551 C 1213.99 796.26 1216.52 787.238 1220.52 766.278 C 1258.52 761.697 1300.03 760.86 1338.41 757.695 C 1359.15 755.985 1378.34 755.882 1399.15 752.087 z"/>
<path transform="translate(0,0)" fill="rgb(154,201,135)" d="M 1350.27 608.882 C 1350.93 614.832 1357.56 617.527 1362.58 620.021 C 1367.65 622.594 1372.92 627.828 1376.8 632.015 C 1403.57 660.853 1423.99 697.79 1429.86 736.818 C 1407.85 737.049 1380.28 739.772 1357.56 741.204 C 1343.83 740.811 1323.39 742.791 1309.28 743.744 L 1227.71 749.416 C 1224.44 748.007 1224.01 742.36 1222.7 738.107 C 1218.82 725.479 1211.14 710.323 1201.48 701.266 C 1227.88 688.921 1258.23 672.711 1284.43 659.406 L 1281.61 656.621 C 1298.39 652.315 1319.67 636.003 1334.46 626.902 L 1332.74 624.67 C 1334.47 622.431 1334.83 621.958 1336.13 619.47 C 1331.79 621.057 1328.19 622.163 1323.74 623.439 C 1325.5 621.941 1327.75 620.414 1329.65 619.034 C 1334.95 617.013 1345.1 611.531 1350.27 608.882 z"/>
<path transform="translate(0,0)" fill="rgb(15,15,34)" d="M 1350.27 608.882 C 1350.93 614.832 1357.56 617.527 1362.58 620.021 C 1354.36 624.606 1346.02 628.953 1337.55 633.059 C 1336.39 630.079 1336.15 629.626 1334.46 626.902 L 1332.74 624.67 C 1334.47 622.431 1334.83 621.958 1336.13 619.47 C 1331.79 621.057 1328.19 622.163 1323.74 623.439 C 1325.5 621.941 1327.75 620.414 1329.65 619.034 C 1334.95 617.013 1345.1 611.531 1350.27 608.882 z"/>
<path transform="translate(0,0)" fill="rgb(0,0,0)" d="M 1334.46 626.902 C 1336.15 629.626 1336.39 630.079 1337.55 633.059 C 1321.73 640.742 1299.23 651.009 1284.43 659.406 L 1281.61 656.621 C 1298.39 652.315 1319.67 636.003 1334.46 626.902 z"/>
<path transform="translate(0,0)" fill="rgb(74,172,179)" d="M 1215.17 532.055 C 1256.49 547.532 1294.77 564.178 1330.43 590.81 C 1336.36 595.243 1346.47 602.705 1350.27 608.882 C 1345.1 611.531 1334.95 617.013 1329.65 619.034 C 1327.75 620.414 1325.5 621.941 1323.74 623.439 C 1313.23 627.948 1291.2 640.782 1283.1 643.54 C 1274.33 645.518 1242.35 662.104 1233.15 666.948 C 1221.12 673.289 1200.56 682.697 1189.13 689.492 C 1174.55 674.367 1147.33 660.979 1128.14 653.128 C 1134.46 642.065 1146.67 628.708 1151.74 618.117 C 1166.38 601.328 1187.05 569.531 1202.24 549.874 C 1206.27 544.022 1210.6 537.42 1215.17 532.055 z"/>
<path transform="translate(0,0)" fill="rgb(99,186,181)" d="M 1215.17 532.055 C 1256.49 547.532 1294.77 564.178 1330.43 590.81 C 1336.36 595.243 1346.47 602.705 1350.27 608.882 C 1345.1 611.531 1334.95 617.013 1329.65 619.034 C 1295.99 588.215 1244.47 565.911 1202.24 549.874 C 1206.27 544.022 1210.6 537.42 1215.17 532.055 z"/>
<path transform="translate(0,0)" fill="rgb(79,143,209)" d="M 1032.84 634.8 C 1061.42 635.27 1083.61 639.373 1111.16 646.001 L 1110.74 661.782 C 1106.19 661.168 1100.65 659.893 1096.17 658.668 C 1075.37 652.978 1054.82 652.245 1033.62 649.738 L 1032.63 647.301 L 1032.84 634.8 z"/>
<path transform="translate(0,0)" fill="rgb(79,143,209)" d="M 936.177 646.838 C 951.783 642.384 967.708 639.133 983.811 637.112 C 989.799 636.35 1011.67 635.11 1014.85 633.989 C 1014.83 641.399 1014.66 644.756 1013.61 652.066 C 997.685 647.574 954.199 657.628 937.198 661.363 C 936.919 657.4 936.603 653.439 936.25 649.481 L 936.177 646.838 z"/>
<path transform="translate(0,0)" fill="rgb(93,130,205)" d="M 919.001 651.953 C 920.66 656.789 920.776 662.026 921.214 667.178 C 895.458 679.146 883.149 685.029 861.342 703.815 C 860.945 699.479 860.93 695.926 859.318 691.899 L 857.91 689.148 C 861.255 686.801 865.446 683.381 868.613 680.721 C 883.835 667.935 901.313 660.609 919.001 651.953 z"/>
<path transform="translate(0,0)" fill="rgb(36,116,140)" d="M 1128.14 653.128 C 1147.33 660.979 1174.55 674.367 1189.13 689.492 C 1188.42 694.431 1187.98 699.543 1187.48 704.518 C 1168.15 689.523 1151.34 677.689 1127.88 669.083 C 1127.78 663.542 1127.93 658.653 1128.14 653.128 z"/>
<path transform="translate(0,0)" fill="rgb(101,71,157)" d="M 617.899 783.849 C 621.5 790.891 623.178 801.758 625.814 809.574 C 632.477 829.329 648.631 862.079 662.174 877.742 C 659.474 880.711 659.362 889.937 658.815 894.812 C 644.469 875.033 634.254 858.896 627 834.978 C 624.355 826.259 621.76 810.701 618.028 803.439 L 617.899 783.849 z"/>
<path transform="translate(0,0)" fill="rgb(62,142,98)" d="M 1386.83 878.761 C 1399.19 861.692 1410.03 843.653 1417.96 823.997 C 1420.69 817.224 1424.72 798.674 1429.03 795.424 C 1428.4 801.05 1427.73 810.54 1426.8 815.649 C 1416.77 845.529 1410.67 869.007 1389.78 894.545 C 1389.33 890.125 1388.97 882.392 1386.83 878.761 z"/>
<path transform="translate(0,0)" fill="rgb(89,177,123)" d="M 1200.59 716.384 C 1200.56 710.152 1200.58 707.501 1201.48 701.266 C 1211.14 710.323 1218.82 725.479 1222.7 738.107 C 1224.01 742.36 1224.44 748.007 1227.71 749.416 C 1224.51 750.225 1221.28 750.656 1218.02 751.171 C 1213.81 735.14 1209.81 729.815 1200.59 716.384 z"/>
<path transform="translate(0,0)" fill="rgb(101,71,157)" d="M 846.222 700.145 L 846.816 700.211 C 846.899 705.368 847.134 711.31 847.066 716.402 C 839.984 728.061 835.659 736.572 830.457 749.289 C 827.165 750.18 825.973 749.659 822.66 748.984 C 827.501 726.535 832.803 718.802 846.222 700.145 z"/>
<path transform="translate(0,0)" fill="rgb(114,111,213)" d="M 936.132 871.237 C 968.636 879.597 982.064 880.866 1014.98 884.003 C 1014.98 918.834 1016.05 959.567 1014.86 993.885 C 1015.58 1007.9 1015.24 1028.63 1014.06 1042.34 C 960.839 1044.19 878.695 1029.28 829.441 1009.27 C 829.131 1001.97 829.198 999.347 830.084 992.112 C 834.901 984.581 844.84 973.823 850.95 966.8 C 863.885 951.878 876.959 937.078 890.17 922.4 C 903.047 907.981 923.163 883.399 936.132 871.237 z"/>
<path transform="translate(0,0)" fill="rgb(101,71,157)" d="M 829.441 1009.27 C 829.131 1001.97 829.198 999.347 830.084 992.112 C 842.327 995.853 856.687 1001.35 868.565 1004.51 C 910.58 1015.71 970.571 1026.42 1013.94 1024.74 C 1014.16 1018.29 1014.16 999.036 1014.86 993.885 C 1015.58 1007.9 1015.24 1028.63 1014.06 1042.34 C 960.839 1044.19 878.695 1029.28 829.441 1009.27 z"/>
<path transform="translate(0,0)" fill="rgb(98,190,225)" d="M 1033.85 883.869 C 1065.31 881.357 1081.77 879.134 1112.53 871.216 C 1115.92 874.297 1118.69 877.49 1121.75 880.878 C 1153.68 917.367 1186.38 955.295 1218.7 991.296 C 1219.4 997.925 1219.76 1001.74 1219.68 1008.45 C 1170.82 1028.74 1087.18 1043.02 1034.07 1041.99 L 1033.89 1024.61 L 1033.38 932 C 1033.32 921.237 1032.5 893.63 1033.85 883.869 z"/>
<path transform="translate(0,0)" fill="rgb(79,143,209)" d="M 1033.89 1024.61 C 1080.09 1024.55 1135.87 1015.51 1180.55 1003.92 C 1192.86 1000.72 1206.45 995.25 1218.7 991.296 C 1219.4 997.925 1219.76 1001.74 1219.68 1008.45 C 1170.82 1028.74 1087.18 1043.02 1034.07 1041.99 L 1033.89 1024.61 z"/>
<path transform="translate(0,0)" fill="rgb(137,223,236)" d="M 1033.85 883.869 C 1065.31 881.357 1081.77 879.134 1112.53 871.216 C 1115.92 874.297 1118.69 877.49 1121.75 880.878 C 1111.1 890.86 1050.64 896.27 1034.44 898.455 C 1034.34 894.206 1034.4 887.917 1033.85 883.869 z"/>
<path transform="translate(0,0)" fill="rgb(89,177,123)" d="M 1190 828.064 L 1203.05 832.579 C 1241.59 845.466 1280.03 858.694 1318.34 872.259 C 1335.06 878.112 1359.54 885.676 1374.98 892.163 C 1375.8 897.287 1376.54 902.424 1377.19 907.573 C 1350.17 943.98 1280.45 987.673 1237.19 1001.65 C 1236.85 995.952 1236.4 990.594 1236.63 984.882 C 1226.49 972.035 1212.12 956.957 1200.99 944.622 L 1140.19 877.074 C 1135.69 872.41 1134.34 870.683 1130.63 865.463 C 1157.27 853.176 1167.6 846.14 1190 828.064 z"/>
<path transform="translate(0,0)" fill="rgb(62,142,98)" d="M 1374.98 892.163 C 1375.8 897.287 1376.54 902.424 1377.19 907.573 C 1350.17 943.98 1280.45 987.673 1237.19 1001.65 C 1236.85 995.952 1236.4 990.594 1236.63 984.882 C 1296.94 955.135 1325.92 943.254 1374.98 892.163 z"/>
<path transform="translate(0,0)" fill="rgb(154,201,135)" d="M 1190 828.064 L 1203.05 832.579 C 1188.61 851.551 1155.8 864.557 1140.19 877.074 C 1135.69 872.41 1134.34 870.683 1130.63 865.463 C 1157.27 853.176 1167.6 846.14 1190 828.064 z"/>
<path transform="translate(0,0)" fill="rgb(167,107,219)" d="M 848.929 831.621 C 852.137 830.17 854.957 828.375 858.312 828.715 C 882.412 846.319 890.667 852.662 917.911 865.041 C 914.671 869.602 912.457 872.798 908.625 876.97 L 812.184 984.531 C 811.978 990.352 811.702 996.17 811.354 1001.98 C 764.275 984.926 702.359 945.232 670.558 906.771 C 671.228 901.723 671.491 896.718 673.626 892.181 C 688.38 885.332 722.574 874.907 739.241 869.27 L 848.929 831.621 z"/>
<path transform="translate(0,0)" fill="rgb(101,71,157)" d="M 670.558 906.771 C 671.228 901.723 671.491 896.718 673.626 892.181 L 674.435 892.799 C 684.654 900.766 694.73 912.394 704.48 920.375 C 732.869 943.613 777.945 971.883 812.184 984.531 C 811.978 990.352 811.702 996.17 811.354 1001.98 C 764.275 984.926 702.359 945.232 670.558 906.771 z"/>
<path transform="translate(0,0)" fill="rgb(167,107,219)" d="M 848.929 831.621 C 852.137 830.17 854.957 828.375 858.312 828.715 C 882.412 846.319 890.667 852.662 917.911 865.041 C 914.671 869.602 912.457 872.798 908.625 876.97 C 889.329 863.191 862.633 853.767 848.929 831.621 z"/>
<path transform="translate(0,0)" fill="rgb(112,157,226)" d="M 616.067 1173.93 C 633.332 1242.51 675.563 1284.32 734.822 1319.75 C 760.106 1334.54 786.779 1346.82 814.46 1356.41 C 825.088 1360.16 838.121 1363.63 848.03 1367.4 C 852.127 1368 868.354 1372.47 873.508 1373.7 C 888.83 1377.43 904.322 1380.42 919.932 1382.66 C 1020.38 1397.81 1127.65 1392.15 1224.96 1359.06 C 1301.25 1333.12 1394.42 1282.16 1424.95 1202.52 C 1427.75 1195.23 1428.59 1186.26 1432.1 1179.12 C 1433.5 1180.62 1433.09 1184.45 1433.23 1187.18 C 1432.73 1199.12 1431.36 1250.99 1433.16 1260.27 C 1435.48 1267.66 1449.99 1285.11 1454.96 1293.72 C 1533.57 1429.99 1406.74 1531.06 1291.05 1575.22 C 1202.87 1608.88 1130.02 1620.28 1038.63 1623.81 C 942.836 1626.87 838.936 1608.58 750.214 1573.3 C 633.745 1526.99 513.7 1420.26 594.181 1286.99 C 599.139 1278.78 611.791 1265.02 614.172 1257.6 C 613.729 1245.01 615.759 1226.88 615.672 1213.44 C 615.606 1203.3 614.453 1182.11 616.067 1173.93 z"/>
<path transform="translate(0,0)" fill="rgb(15,15,34)" d="M 1038.63 1623.81 C 942.836 1626.87 838.936 1608.58 750.214 1573.3 C 633.745 1526.99 513.7 1420.26 594.181 1286.99 C 599.139 1278.78 611.791 1265.02 614.172 1257.6 C 615.279 1263.84 617.61 1295.19 616.787 1300.76 C 619.531 1352.1 643.621 1392.19 681.221 1426.17 C 719.476 1460.75 765.081 1484.49 813.348 1501.73 C 819.202 1503.82 840.411 1511.21 845.859 1511.66 C 879.098 1524.24 951.083 1533.54 987.406 1535.33 C 1114.55 1541.58 1268.87 1512.06 1367.35 1426.11 C 1399.72 1397.86 1428.65 1352.4 1430.96 1308.85 C 1431.35 1295.97 1431.31 1271.88 1433.16 1260.27 C 1435.48 1267.66 1449.99 1285.11 1454.96 1293.72 C 1533.57 1429.99 1406.74 1531.06 1291.05 1575.22 C 1202.87 1608.88 1130.02 1620.28 1038.63 1623.81 z"/>
<path transform="translate(0,0)" fill="rgb(101,71,157)" d="M 1038.63 1623.81 C 942.836 1626.87 838.936 1608.58 750.214 1573.3 C 633.745 1526.99 513.7 1420.26 594.181 1286.99 C 599.139 1278.78 611.791 1265.02 614.172 1257.6 C 615.279 1263.84 617.61 1295.19 616.787 1300.76 C 614.553 1307.3 614.971 1314.72 614.444 1321.54 C 604.826 1446.14 717.132 1515.43 820.974 1549.82 C 888.844 1572.29 956.809 1580.42 1029.57 1581.16 C 1044.49 1585.7 1067.08 1578.65 1082.63 1580.5 L 1082.92 1581.09 C 1080.84 1584.89 1081.14 1582.98 1081.51 1586.94 C 1083.85 1588.81 1084.43 1588.56 1087.42 1588.86 C 1088.24 1592.07 1087.01 1593.94 1085.74 1597.09 L 1086.4 1599 L 1089.33 1600.13 L 1089.32 1601.67 C 1087.19 1602.1 1087 1602.06 1085.1 1603.16 C 1086.97 1607.8 1090.17 1604.03 1087.22 1610.17 C 1080.36 1624.41 1046.77 1618.58 1038.63 1623.81 z"/>
<path transform="translate(0,0)" fill="rgb(36,116,140)" d="M 1433.16 1260.27 C 1435.48 1267.66 1449.99 1285.11 1454.96 1293.72 C 1533.57 1429.99 1406.74 1531.06 1291.05 1575.22 C 1202.87 1608.88 1130.02 1620.28 1038.63 1623.81 C 1046.77 1618.58 1080.36 1624.41 1087.22 1610.17 C 1090.17 1604.03 1086.97 1607.8 1085.1 1603.16 C 1087 1602.06 1087.19 1602.1 1089.32 1601.67 L 1089.33 1600.13 L 1086.4 1599 L 1085.74 1597.09 C 1087.01 1593.94 1088.24 1592.07 1087.42 1588.86 C 1084.43 1588.56 1083.85 1588.81 1081.51 1586.94 C 1081.14 1582.98 1080.84 1584.89 1082.92 1581.09 L 1082.63 1580.5 C 1067.08 1578.65 1044.49 1585.7 1029.57 1581.16 C 1129.98 1580.14 1244 1555.62 1329.74 1501.52 C 1376.29 1472.15 1417.93 1430.52 1430.51 1375.07 C 1432.9 1364.56 1437.75 1313.5 1432.5 1305.25 L 1430.96 1308.85 C 1431.35 1295.97 1431.31 1271.88 1433.16 1260.27 z"/>
<path transform="translate(0,0)" fill="rgb(79,143,209)" d="M 949.551 1408.45 C 976.483 1410.01 1001.48 1412.63 1029.03 1412.05 C 1144.37 1409.62 1276.7 1378.39 1366.12 1301.61 C 1389.38 1281.64 1406.74 1260.77 1417.97 1232.2 C 1419.05 1234.08 1419 1234.37 1420.66 1235.73 L 1421.33 1230.35 L 1422.62 1230.47 C 1423.61 1232.4 1421.76 1315 1420.66 1322.16 C 1411.05 1384.82 1342.49 1435.31 1288.79 1461.86 C 1204.61 1503.48 1106.81 1520.63 1013.3 1519.86 C 1005.98 1519.81 972.501 1518.81 966.794 1517.35 L 966.955 1517 C 966.238 1515.29 956.478 1515.6 953.893 1515.28 C 921.277 1511.34 889.951 1507.14 858.605 1497.07 C 862.094 1496.02 863.742 1496.2 866.352 1493.35 C 867.359 1489.24 866.646 1489.64 865.091 1484.85 C 866.554 1481.32 868.168 1478.63 870.05 1475.3 C 856.672 1457.25 870.765 1456.45 869.263 1443.55 C 867.536 1428.73 852.315 1426.26 844.642 1420.63 C 842.431 1416.06 847.522 1407.99 847.814 1400.78 L 848.085 1392.35 C 851.818 1388.51 933.363 1411.72 949.551 1408.45 z"/>
<path transform="translate(0,0)" fill="rgb(15,15,34)" d="M 901.294 1438.18 C 927.011 1440.43 934.228 1470 909.235 1476.19 C 883.28 1472.51 877.052 1443.51 901.294 1438.18 z"/>
<path transform="translate(0,0)" fill="rgb(114,111,213)" d="M 626.128 1226.24 C 646.149 1283.78 716.593 1334.36 770.388 1359.6 C 778.657 1363.48 794.603 1370.9 803.153 1372.24 C 807.71 1373.2 834.243 1383.53 842.514 1386 C 877.514 1396.42 913.314 1403.93 949.551 1408.45 C 933.363 1411.72 851.818 1388.51 848.085 1392.35 L 847.814 1400.78 C 847.522 1407.99 842.431 1416.06 844.642 1420.63 C 852.315 1426.26 867.536 1428.73 869.263 1443.55 C 870.765 1456.45 856.672 1457.25 870.05 1475.3 C 868.168 1478.63 866.554 1481.32 865.091 1484.85 C 866.646 1489.64 867.359 1489.24 866.352 1493.35 C 863.742 1496.2 862.094 1496.02 858.605 1497.07 C 889.951 1507.14 921.277 1511.34 953.893 1515.28 C 956.478 1515.6 966.238 1515.29 966.955 1517 L 966.794 1517.35 C 903.001 1512.31 837.372 1498.64 778.418 1473.08 C 770.569 1469.68 754.159 1461.63 747.825 1456.67 C 747.012 1454.86 733.522 1447.47 730.53 1445.57 C 716.034 1436.35 702.244 1426.07 689.275 1414.81 C 609.791 1346.3 632.921 1316.86 626.128 1226.24 z"/>
<path transform="translate(0,0)" fill="rgb(15,15,34)" d="M 843.097 1424.17 C 866.092 1426.3 878.083 1453.38 855.116 1463.27 C 851.85 1462.96 849.558 1462.73 846.463 1461.53 C 839.842 1458.93 834.555 1453.76 831.801 1447.2 C 827.25 1436.05 831.958 1427.69 843.097 1424.17 z"/>
<path transform="translate(0,0)" fill="rgb(15,15,34)" d="M 784.813 1407.08 C 808.132 1405.6 824.752 1433.31 804.666 1445.33 C 784.064 1447.84 766.572 1422.84 784.813 1407.08 z"/>
<path transform="translate(0,0)" fill="rgb(167,107,219)" d="M 616.067 1173.93 C 633.332 1242.51 675.563 1284.32 734.822 1319.75 C 760.106 1334.54 786.779 1346.82 814.46 1356.41 C 825.088 1360.16 838.121 1363.63 848.03 1367.4 C 841.66 1368.84 831.901 1364.38 825.745 1362.31 C 788.753 1349.86 753.416 1333.94 720.386 1313.07 C 714.615 1309.43 685.564 1285.88 682.589 1285.89 C 676.875 1298.01 682.533 1300.17 691.432 1307.54 C 714.845 1327.04 740.595 1343.56 768.087 1356.7 C 774.439 1359.69 799.739 1369.69 803.153 1372.24 C 794.603 1370.9 778.657 1363.48 770.388 1359.6 C 716.593 1334.36 646.149 1283.78 626.128 1226.24 C 632.921 1316.86 609.791 1346.3 689.275 1414.81 C 702.244 1426.07 716.034 1436.35 730.53 1445.57 C 733.522 1447.47 747.012 1454.86 747.825 1456.67 C 731.762 1452.12 711.696 1434.13 698.195 1424.4 C 690.465 1418.83 684.045 1408.63 674.073 1412.42 L 672.999 1413.94 C 674.333 1420.59 712.723 1449.03 721.183 1454.54 C 753.61 1475.66 788.971 1492.56 826.011 1503.93 C 829.953 1505.14 840.885 1508.71 845.405 1510.03 C 845.556 1510.57 845.708 1511.11 845.859 1511.66 C 840.411 1511.21 819.202 1503.82 813.348 1501.73 C 765.081 1484.49 719.476 1460.75 681.221 1426.17 C 643.621 1392.19 619.531 1352.1 616.787 1300.76 C 617.61 1295.19 615.279 1263.84 614.172 1257.6 C 613.729 1245.01 615.759 1226.88 615.672 1213.44 C 615.606 1203.3 614.453 1182.11 616.067 1173.93 z"/>
<path transform="translate(0,0)" fill="rgb(93,130,205)" d="M 617.13 1012.62 C 620.784 1028.26 623.974 1042.21 630.004 1057.13 C 647.831 1101.24 693.204 1143.83 733.683 1168.34 C 859.562 1244.57 1027.71 1258.3 1169.27 1225.63 C 1178.25 1223.55 1194.82 1219.32 1203.13 1216.13 C 1209.85 1214.51 1217.66 1211.9 1224.28 1209.54 C 1307.76 1179.81 1400.39 1126.91 1426.29 1036 C 1428.22 1029.21 1429.6 1022.59 1431.8 1015.87 L 1432.15 1014.81 C 1432.6 1022.78 1432.34 1031.11 1432.92 1038.71 C 1433.98 1072.65 1433.03 1110.51 1432.98 1144.88 C 1433.96 1150.82 1434.21 1181.46 1433.23 1187.18 C 1433.09 1184.45 1433.5 1180.62 1432.1 1179.12 C 1428.59 1186.26 1427.75 1195.23 1424.95 1202.52 C 1394.42 1282.16 1301.25 1333.12 1224.96 1359.06 C 1127.65 1392.15 1020.38 1397.81 919.932 1382.66 C 904.322 1380.42 888.83 1377.43 873.508 1373.7 C 868.354 1372.47 852.127 1368 848.03 1367.4 C 838.121 1363.63 825.088 1360.16 814.46 1356.41 C 786.779 1346.82 760.106 1334.54 734.822 1319.75 C 675.563 1284.32 633.332 1242.51 616.067 1173.93 C 615.472 1162.04 614.511 1151.61 615.039 1139.65 C 614.456 1123.74 615.279 1107.3 615.307 1091.32 C 615.337 1073.85 614.875 1056.34 615.217 1038.9 C 615.3 1028.57 615.221 1022.75 617.13 1012.62 z"/>
<path transform="translate(0,0)" fill="url(#Gradient3)" d="M 615.039 1139.65 C 618.527 1155.15 621.728 1169.63 627.487 1184.53 C 643.766 1226.68 686.434 1267.32 724.77 1291.37 C 850.321 1370.15 1023.99 1383.42 1166.42 1352.87 C 1187.84 1348.28 1261.63 1326.08 1278.12 1314.39 C 1293.99 1307.92 1313.35 1296.72 1327.9 1287.56 C 1368.2 1262.17 1405.72 1225.68 1423.31 1180.68 C 1427.9 1168.94 1430.28 1157.18 1432.98 1144.88 C 1433.96 1150.82 1434.21 1181.46 1433.23 1187.18 C 1433.09 1184.45 1433.5 1180.62 1432.1 1179.12 C 1428.59 1186.26 1427.75 1195.23 1424.95 1202.52 C 1394.42 1282.16 1301.25 1333.12 1224.96 1359.06 C 1127.65 1392.15 1020.38 1397.81 919.932 1382.66 C 904.322 1380.42 888.83 1377.43 873.508 1373.7 C 868.354 1372.47 852.127 1368 848.03 1367.4 C 838.121 1363.63 825.088 1360.16 814.46 1356.41 C 786.779 1346.82 760.106 1334.54 734.822 1319.75 C 675.563 1284.32 633.332 1242.51 616.067 1173.93 C 615.472 1162.04 614.511 1151.61 615.039 1139.65 z"/>
<path transform="translate(0,0)" fill="url(#Gradient2)" d="M 617.13 1012.62 C 620.784 1028.26 623.974 1042.21 630.004 1057.13 C 647.831 1101.24 693.204 1143.83 733.683 1168.34 C 859.562 1244.57 1027.71 1258.3 1169.27 1225.63 C 1178.25 1223.55 1194.82 1219.32 1203.13 1216.13 C 1209.85 1214.51 1217.66 1211.9 1224.28 1209.54 C 1307.76 1179.81 1400.39 1126.91 1426.29 1036 C 1428.22 1029.21 1429.6 1022.59 1431.8 1015.87 L 1432.15 1014.81 C 1432.6 1022.78 1432.34 1031.11 1432.92 1038.71 C 1430.72 1042.6 1429.87 1048.9 1428.99 1053.37 C 1416.52 1116.63 1367.13 1155.08 1317.16 1188.64 C 1314.34 1189.62 1301.76 1197.29 1298.18 1199.34 C 1274.28 1212.96 1245.4 1224.59 1219.38 1233.18 C 1104.21 1270.49 980.784 1274.19 863.585 1243.84 C 768.98 1219.68 658.868 1164.2 623.336 1066.59 C 620.609 1059.1 619.306 1044.9 615.217 1038.9 C 615.3 1028.57 615.221 1022.75 617.13 1012.62 z"/>
<path transform="translate(0,0)" fill="rgb(99,186,181)" d="M 1317.16 1188.64 C 1367.13 1155.08 1416.52 1116.63 1428.99 1053.37 C 1429.87 1048.9 1430.72 1042.6 1432.92 1038.71 C 1433.98 1072.65 1433.03 1110.51 1432.98 1144.88 C 1430.28 1157.18 1427.9 1168.94 1423.31 1180.68 C 1405.72 1225.68 1368.2 1262.17 1327.9 1287.56 C 1313.35 1296.72 1293.99 1307.92 1278.12 1314.39 L 1277.75 1313.43 C 1283.06 1309.24 1301.02 1301.73 1308.23 1297.53 C 1322.95 1288.95 1338.58 1278.87 1352.14 1268.35 C 1373.55 1250.96 1411.66 1214.35 1418.07 1186.05 C 1423.24 1163.24 1417.75 1121.37 1419.71 1097.06 C 1419.96 1093.95 1419.42 1092.29 1420.46 1089.5 L 1420.49 1089.61 L 1420.86 1086.75 C 1419.92 1087.36 1409.24 1105.19 1408.2 1107.58 C 1400.44 1125.35 1333.22 1189.17 1317.16 1188.64 z"/>
<path transform="translate(0,0)" fill="rgb(99,186,181)" d="M 1432.95 858.747 C 1434.44 900.471 1432.03 945.871 1432.97 988.001 C 1433.17 996.586 1431.99 1006.29 1432.15 1014.81 L 1431.8 1015.87 C 1429.6 1022.59 1428.22 1029.21 1426.29 1036 C 1400.39 1126.91 1307.76 1179.81 1224.28 1209.54 C 1217.66 1211.9 1209.85 1214.51 1203.13 1216.13 L 1202.47 1214.62 C 1178.3 1222.46 1150.87 1228.58 1125.7 1232.18 C 1119.48 1233.06 1113.5 1233.9 1107.33 1235.09 L 1106 1233.98 C 1105.28 1230.21 1103.24 1221.36 1109.12 1220.3 C 1146 1213.66 1191.55 1207.58 1225.93 1192.57 C 1195.66 1201.67 1159.03 1211.88 1127.49 1214.56 C 1123.56 1214.89 1123.79 1214.59 1119.67 1215.6 L 1116.01 1215.12 C 1108.38 1210.11 1107.16 1192.44 1111.49 1186.01 L 1113.09 1192.31 C 1114.18 1184.94 1112.67 1173.35 1113.47 1165.81 C 1113.88 1161.86 1117.76 1151.52 1119.24 1147.35 C 1118.62 1150 1119.05 1149.05 1117.17 1151.15 L 1116.34 1150.2 C 1116.75 1142.59 1116.17 1132.89 1115.92 1125.12 C 1117.07 1124.66 1118.22 1124.18 1119.36 1123.69 L 1119.33 1121.9 C 1116.43 1116.75 1117.07 1118.53 1111.11 1115.3 L 1110.78 1113.07 L 1113.89 1108.96 C 1151.19 1101.96 1186.34 1093.8 1221.97 1080.72 L 1220.6 1080.15 C 1202.32 1087.7 1123.26 1107.32 1103.36 1107.25 C 1099.06 1107.25 1094.8 1106.39 1090.82 1104.73 C 1083.76 1101.78 1080.55 1098.24 1077.89 1091.31 L 1079.08 1090.39 C 1104.95 1091.44 1198.35 1071.34 1221.67 1060.12 L 1221.73 1058.66 C 1226 1056.42 1239.17 1051.87 1244.31 1049.86 C 1257.91 1044.68 1271.22 1038.79 1284.2 1032.21 C 1346.9 1000.36 1410.99 948.44 1428.69 877.442 C 1430.28 871.09 1430.77 864.96 1432.95 858.747 z"/>
<path transform="translate(0,0)" fill="url(#Gradient1)" d="M 614.81 878.16 C 614.95 874.724 614.427 872.053 616.013 869.65 C 619.957 875.908 621.374 888.027 624.471 895.077 C 669.14 996.781 788.376 1054 890.159 1077.14 C 979.405 1096.66 1071.86 1096.23 1160.92 1075.89 C 1183.5 1070.76 1200.3 1064.72 1221.73 1058.66 L 1221.67 1060.12 C 1198.35 1071.34 1104.95 1091.44 1079.08 1090.39 L 1077.89 1091.31 C 1080.55 1098.24 1083.76 1101.78 1090.82 1104.73 C 1094.8 1106.39 1099.06 1107.25 1103.36 1107.25 C 1123.26 1107.32 1202.32 1087.7 1220.6 1080.15 L 1221.97 1080.72 C 1186.34 1093.8 1151.19 1101.96 1113.89 1108.96 C 1085.67 1113.21 1056.3 1113.57 1027.79 1114.31 C 889.439 1117.86 695.34 1061.2 627.119 929.504 C 627.355 931.658 627.857 933.693 628.095 935.695 C 631.354 963.13 623.821 1008.67 631.379 1033.95 C 646.06 1083.06 693.776 1123.29 735.144 1150.48 C 837.477 1213.04 968.005 1233.3 1086.03 1220.18 C 1093.98 1219.3 1112.48 1217.54 1119.67 1215.6 C 1123.79 1214.59 1123.56 1214.89 1127.49 1214.56 C 1159.03 1211.88 1195.66 1201.67 1225.93 1192.57 C 1191.55 1207.58 1146 1213.66 1109.12 1220.3 C 1103.24 1221.36 1105.28 1230.21 1106 1233.98 L 1107.33 1235.09 C 1113.5 1233.9 1119.48 1233.06 1125.7 1232.18 C 1150.87 1228.58 1178.3 1222.46 1202.47 1214.62 L 1203.13 1216.13 C 1194.82 1219.32 1178.25 1223.55 1169.27 1225.63 C 1027.71 1258.3 859.562 1244.57 733.683 1168.34 C 693.204 1143.83 647.831 1101.24 630.004 1057.13 C 623.974 1042.21 620.784 1028.26 617.13 1012.62 C 613.589 972.95 615.382 919.323 614.81 878.16 z"/>
<path transform="translate(0,0)" fill="rgb(15,15,34)" d="M 838.951 1127.12 C 863.507 1124.98 879.017 1153.6 857.18 1166.29 C 836.717 1169.74 818.129 1142.71 838.951 1127.12 z"/>
<path transform="translate(0,0)" fill="rgb(15,15,34)" d="M 898.104 1140.99 C 921.772 1140.11 936.377 1166.11 912.993 1178.92 C 886.732 1180.25 874.9 1152 898.104 1140.99 z"/>
<path transform="translate(0,0)" fill="rgb(15,15,34)" d="M 786.986 1106.92 C 806.19 1106.96 825.668 1133.96 803.062 1147.02 C 783.51 1147.14 765.428 1120.09 786.986 1106.92 z"/>
<path transform="translate(0,0)" fill="rgb(167,107,219)" d="M 684.322 619.502 L 703.883 629.706 C 750.041 652.039 801.287 676.431 846.222 700.145 C 832.803 718.802 827.501 726.535 822.66 748.984 C 806.225 748.349 760.894 743.643 747.969 745.34 C 717.298 740.687 672.347 740.175 639.198 737.226 L 618.146 736.607 C 624.272 695.248 652.137 645.898 684.322 619.502 z"/>
<path transform="translate(0,0)" fill="rgb(162,138,231)" d="M 684.322 619.502 L 703.883 629.706 L 702.762 630.84 C 698.389 635.194 692.187 639.494 688.196 644.08 C 670.227 664.724 639.125 709.351 639.198 737.226 L 618.146 736.607 C 624.272 695.248 652.137 645.898 684.322 619.502 z"/>
<path transform="translate(0,0)" fill="rgb(112,157,226)" d="M 831.745 532.275 C 837.079 537.951 840.667 543.23 845.031 549.642 C 858.857 567.705 872.427 587.978 886.374 606.309 C 892.871 614.849 915.386 644.242 919.001 651.953 C 901.313 660.609 883.835 667.935 868.613 680.721 C 865.446 683.381 861.255 686.801 857.91 689.148 C 849.943 683.187 811.744 665.225 801.869 660.491 C 774.088 647.061 746.438 633.361 718.923 619.395 C 712.063 616.275 703.973 611.843 697.166 608.346 C 726.698 576.569 790.151 545.534 831.745 532.275 z"/>
<path transform="translate(0,0)" fill="rgb(96,178,234)" d="M 831.745 532.275 C 837.079 537.951 840.667 543.23 845.031 549.642 C 803.192 567.08 752.242 587.165 718.923 619.395 C 712.063 616.275 703.973 611.843 697.166 608.346 C 726.698 576.569 790.151 545.534 831.745 532.275 z"/>
<path transform="translate(0,0)" fill="rgb(96,178,234)" d="M 849.64 527.395 C 869.132 517.913 1001.23 492.812 1014.56 503.856 C 1015.87 508.984 1015.24 516.183 1015.1 521.672 C 1015.21 559.111 1015.13 596.55 1014.85 633.989 C 1011.67 635.11 989.799 636.35 983.811 637.112 C 967.708 639.133 951.783 642.384 936.177 646.838 C 930.924 637.493 918.468 621.911 911.605 612.654 C 895.065 590.482 878.699 568.181 862.51 545.751 C 857.85 539.96 853.28 533.876 849.64 527.395 z"/>
<path transform="translate(0,0)" fill="rgb(98,190,225)" d="M 849.64 527.395 C 869.132 517.913 1001.23 492.812 1014.56 503.856 C 1015.87 508.984 1015.24 516.183 1015.1 521.672 C 969.879 524.183 904.889 529.217 862.51 545.751 C 857.85 539.96 853.28 533.876 849.64 527.395 z"/>
<path transform="translate(0,0)" fill="rgb(137,223,236)" d="M 1032.6 501.427 C 1087.05 504.466 1146.19 507.63 1198.05 527.054 C 1189.36 541.771 1174.33 560.712 1164.04 574.946 C 1154.4 588.297 1144.4 603.417 1134.52 616.154 C 1129.46 620.578 1115.3 639.756 1111.16 646.001 C 1083.61 639.373 1061.42 635.27 1032.84 634.8 L 1032.6 501.427 z"/>
</svg>